<?xml version="1.0" encoding="UTF-8" standalone="no"?>
<!-- Created with Inkscape (http://www.inkscape.org/) -->

<svg
   width="512"
   height="512"
   viewBox="0 0 512 512"
   version="1.1"
   id="svg1"
   inkscape:version="1.4 (86a8ad7, 2024-10-11)"
   sodipodi:docname="favicon.svg"
   xmlns:inkscape="http://www.inkscape.org/namespaces/inkscape"
   xmlns:sodipodi="http://sodipodi.sourceforge.net/DTD/sodipodi-0.dtd"
   xmlns="http://www.w3.org/2000/svg"
   xmlns:svg="http://www.w3.org/2000/svg">
  <sodipodi:namedview
     id="namedview1"
     pagecolor="#ffffff"
     bordercolor="#000000"
     borderopacity="0.25"
     inkscape:showpageshadow="2"
     inkscape:pageopacity="0.0"
     inkscape:pagecheckerboard="0"
     inkscape:deskcolor="#d1d1d1"
     inkscape:document-units="px"
     inkscape:zoom="1.6752354"
     inkscape:cx="236.98162"
     inkscape:cy="469.48626"
     inkscape:window-width="2560"
     inkscape:window-height="1494"
     inkscape:window-x="-11"
     inkscape:window-y="-11"
     inkscape:window-maximized="1"
     inkscape:current-layer="layer1" />
  <defs
     id="defs1" />
  <g
     inkscape:label="Layer 1"
     inkscape:groupmode="layer"
     id="layer1">
    <g
       id="g10"
       transform="translate(0,20.240594)">
      <g
         id="g1"
         transform="translate(125.23774,-11.651387)"
         style="fill:#2e2c44;fill-opacity:1">
        <path
           style="fill:#2e2c44;fill-opacity:1;stroke-width:1.21413"
           d="m -38.425399,191.36925 c 0,0 -52.15362,39.27641 -52.15362,86.9369 0,126.53001 214.858269,200.73465 335.723179,90.53246 69.41036,-63.28697 -37.37051,-210.9471 -37.37051,-210.9471 0,0 83.19409,-35.48561 72.13979,-2.68411 -17.61782,52.27745 -6.46341,98.16875 13.47331,110.84482 L 352.10354,97.518904 C 229.02294,129.95484 72.593,91.537482 -19.00255,174.19606 L 117.38846,348.12082 C 142.21123,330.08547 67.16172,237.81138 75.36523,209.75168 c 9.33515,-31.93036 19.4213,-52.95654 50.05974,-44.2027 32.28612,9.22461 76.49483,74.78599 57.32157,143.12316 C 165.8635,368.84652 130.5434,387.27896 90.19947,380.49835 62.28327,375.80646 31.52167,362.78242 4.60633,327.79652 -37.184115,273.47521 -38.425399,191.36925 -38.425399,191.36925 Z"
           id="path1-5-5"
           sodipodi:nodetypes="csscsccccsssssc" />
      </g>
      <path
         style="fill:#808088;fill-opacity:1;stroke-width:1.21413"
         d="m 86.812336,154.53663 c 0,0 -52.15362,39.27641 -52.15362,86.9369 0,126.53001 214.858274,200.73465 335.723184,90.53246 69.41036,-63.28697 -37.37051,-210.9471 -37.37051,-210.9471 0,0 83.19409,-35.485607 72.13979,-2.68411 -17.61782,52.27745 -6.46341,98.16875 13.47331,110.84482 L 477.34128,60.686285 C 354.26068,93.122213 197.83074,54.704863 106.23518,137.36344 L 242.6262,311.2882 c 24.82277,-18.03535 -50.22674,-110.30944 -42.02323,-138.36914 9.33515,-31.93036 19.4213,-52.95654 50.05974,-44.2027 32.28612,9.22461 76.49483,74.78599 57.32157,143.12316 -16.88304,60.17438 -52.20314,78.60682 -92.54707,71.82621 -27.9162,-4.69189 -58.6778,-17.71593 -85.59314,-52.70183 C 88.05362,236.64259 86.812336,154.53663 86.812336,154.53663 Z"
         id="path1-5"
         sodipodi:nodetypes="csscsccccsssssc" />
    </g>
  </g>
</svg>
