<?xml version="1.0" encoding="UTF-8" standalone="no"?>
<!-- Created with Inkscape (http://www.inkscape.org/) -->

<svg
   width="512"
   height="512"
   viewBox="0 0 512 512"
   version="1.1"
   id="svg1"
   inkscape:version="1.4 (86a8ad7, 2024-10-11)"
   sodipodi:docname="favicon.svg"
   xmlns:inkscape="http://www.inkscape.org/namespaces/inkscape"
   xmlns:sodipodi="http://sodipodi.sourceforge.net/DTD/sodipodi-0.dtd"
   xmlns="http://www.w3.org/2000/svg"
   xmlns:svg="http://www.w3.org/2000/svg">
  <sodipodi:namedview
     id="namedview1"
     pagecolor="#ffffff"
     bordercolor="#000000"
     borderopacity="0.25"
     inkscape:showpageshadow="2"
     inkscape:pageopacity="0.0"
     inkscape:pagecheckerboard="0"
     inkscape:deskcolor="#d1d1d1"
     inkscape:document-units="px"
     inkscape:zoom="1.6752354"
     inkscape:cx="192.21179"
     inkscape:cy="315.47805"
     inkscape:window-width="2560"
     inkscape:window-height="1494"
     inkscape:window-x="-11"
     inkscape:window-y="-11"
     inkscape:window-maximized="1"
     inkscape:current-layer="layer1" />
  <defs
     id="defs1" />
  <g
     inkscape:label="Layer 1"
     inkscape:groupmode="layer"
     id="layer1">
    <path
       style="fill:#515161;fill-opacity:1;stroke-width:1.34198"
       d="m 58.806675,219.36059 c 0,0 -51.5462292,32.85364 -51.5462292,85.53276 0,43.58293 6.7578102,49.25617 65.7072892,85.53277 C 164.99234,437.31014 339.78296,493.98357 386.5761,367.92088 412.68043,292.68927 321.0455,138.7924 321.0455,138.7924 c 0,0 98.98451,-42.031409 86.76619,-5.77591 -19.47297,57.78224 4.3767,82.9294 27.67902,93.14141 L 487.60339,69.253408 C 350.71642,94.746875 167.87369,39.773504 83.730125,155.91906 L 228.17288,346.24364 c 27.4366,-19.93447 -55.5156,-121.925 -46.44826,-152.93939 10.31813,-35.29261 26.74466,-59.52252 60.60931,-49.84691 35.68584,10.19596 41.49477,62.03696 57.77711,138.77832 18.16093,85.59555 -15.58523,118.51122 -80.43478,113.28844 C 135.27635,388.72681 58.806675,219.36059 58.806675,219.36059 Z"
       id="path1"
       sodipodi:nodetypes="cssscsccccssssc" />
    <path
       style="fill:#808088;fill-opacity:1;stroke-width:1.34198"
       d="m 73.254678,230.03866 c 0,0 -51.54623,32.85364 -51.54623,85.53276 0,43.58293 6.75781,49.25617 65.70729,85.53277 92.024602,46.88402 266.815222,103.55745 313.608362,-22.50524 26.10433,-75.23161 -65.5306,-229.12848 -65.5306,-229.12848 0,0 98.98451,-42.03141 86.76619,-5.77591 -19.47297,57.78224 4.3767,82.9294 27.67902,93.14141 L 502.05139,79.931482 C 365.16442,105.42495 182.32169,50.451582 98.178128,166.59713 L 242.62088,356.92171 c 27.4366,-19.93447 -55.5156,-121.925 -46.44826,-152.93939 10.31813,-35.29261 26.74466,-59.52252 60.60931,-49.84691 35.68584,10.19596 41.49477,62.03696 57.77711,138.77832 18.16093,85.59555 -15.58523,118.51122 -80.43478,113.28844 C 149.72435,399.40488 73.254678,230.03866 73.254678,230.03866 Z"
       id="path1-5"
       sodipodi:nodetypes="cssscsccccssssc" />
  </g>
</svg>
